<?xml version="1.0" encoding="UTF-8" standalone="no"?>
<svg
   xmlns:dc="http://purl.org/dc/elements/1.1/"
   xmlns:cc="http://creativecommons.org/ns#"
   xmlns:rdf="http://www.w3.org/1999/02/22-rdf-syntax-ns#"
   xmlns:svg="http://www.w3.org/2000/svg"
   xmlns="http://www.w3.org/2000/svg"
   id="svg6231"
   version="1.1"
   viewBox="0 0 463.52079 104.27691"
   height="394.11746"
   width="1751.8895">
  <defs
     id="defs6225" />
  <metadata
     id="metadata6228">
    <rdf:RDF>
      <cc:Work
         rdf:about="">
        <dc:format>image/svg+xml</dc:format>
        <dc:type
           rdf:resource="http://purl.org/dc/dcmitype/StillImage" />
        <dc:title></dc:title>
      </cc:Work>
    </rdf:RDF>
  </metadata>
  <g
     transform="translate(430.35297,7.4737257)"
     id="layer1">
    <g
       transform="matrix(10.098281,0,0,10.098281,1806.8505,-406.37224)"
       id="text6782"
       style="font-style:normal;font-variant:normal;font-weight:normal;font-stretch:normal;font-size:10.58333302px;line-height:1.25;font-family:Bahagia;-inkscape-font-specification:'Bahagia, Normal';font-variant-ligatures:normal;font-variant-caps:normal;font-variant-numeric:normal;font-feature-settings:normal;text-align:start;letter-spacing:0px;word-spacing:0px;writing-mode:lr-tb;text-anchor:start;fill:#000000;fill-opacity:1;stroke:#ffffff;stroke-width:0;stroke-miterlimit:4;stroke-dasharray:none;stroke-opacity:1"
       aria-label="ShomaYamamoto">
      <g
         id="g6854">
        <path
           d="m -216.69583,40.136626 c -0.22225,-0.465666 -0.6985,-0.635 -1.19592,-0.635 -1.82033,0 -3.65125,3.490424 -3.65125,4.950924 0,1.248833 1.41817,1.651 2.286,2.084917 0.42333,0.211666 1.05833,0.529166 1.05833,1.068916 0,0.867834 -1.56633,0.977203 -2.18016,0.977203 -0.127,0 -0.24342,-0.05292 -0.35984,-0.05292 -0.127,0 -0.26458,0.07408 -0.27516,0.201084 -0.0212,0.28575 0.59266,0.34925 0.8255,0.34925 1.143,0 2.64583,-0.52212 2.64583,-1.453453 0,-1.778 -3.38667,-1.703917 -3.38667,-3.196167 0,-1.418166 1.85209,-4.485257 3.01625,-4.485257 0.47625,0 0.81492,0.211667 0.81492,0.772584 0,0.328083 -0.0741,0.613833 -0.16933,0.920749 -0.0635,0.201084 0.11641,0.264584 0.254,0.264584 0.35983,0 0.4445,-0.79375 0.4445,-1.185333 0,-0.201084 -0.0318,-0.402167 -0.127,-0.582084 z"
           style="font-style:normal;font-variant:normal;font-weight:normal;font-stretch:normal;font-size:10.58333302px;font-family:Bahagia;-inkscape-font-specification:'Bahagia, Normal';font-variant-ligatures:normal;font-variant-caps:normal;font-variant-numeric:normal;font-feature-settings:normal;text-align:start;writing-mode:lr-tb;text-anchor:start;stroke:#ffffff;stroke-width:0;stroke-miterlimit:4;stroke-dasharray:none;stroke-opacity:1"
           id="path6814" />
        <path
           d="m -213.45796,46.11755 c -0.11642,-0.08467 -0.14817,-0.07408 -0.254,0.0635 -0.21167,0.275167 -0.71967,0.878417 -0.94192,0.878417 -0.0953,0 -0.0635,-0.402167 -0.0529,-0.455083 0.0423,-0.296334 0.1905,-0.92075 -0.23284,-1.037167 -0.41275,-0.116417 -0.81491,0.328083 -1.04775,0.60325 0.41275,-1.471083 0.99484,-2.995083 1.67217,-4.318 0.0741,-0.15875 0.17992,-0.328083 0.24342,-0.486833 0.0635,-0.179917 -0.10584,-0.306917 -0.28575,-0.254 -0.15875,0.05292 -0.254,0.328083 -0.32809,0.465667 -0.11641,0.211666 -0.22225,0.433916 -0.32808,0.645583 -0.889,1.820333 -1.47108,3.566583 -1.87325,5.334 -0.10583,0.455083 -0.22225,0.910166 -0.15875,1.36525 0.0212,0.148166 0.11642,0.1905 0.254,0.169333 0.254,-0.03175 0.24342,-0.264583 0.27517,-0.47625 0.0847,-0.73025 0.97366,-2.614083 1.38641,-2.614083 0.13759,0 -0.0952,0.677333 -0.0317,1.016 0.0423,0.275166 0.28575,0.47625 0.5715,0.423333 0.3175,-0.0635 0.5715,-0.338667 0.78317,-0.560917 0.127,-0.137583 0.52917,-0.624416 0.34925,-0.762 z"
           style="font-style:normal;font-variant:normal;font-weight:normal;font-stretch:normal;font-size:10.58333302px;font-family:Bahagia;-inkscape-font-specification:'Bahagia, Normal';font-variant-ligatures:normal;font-variant-caps:normal;font-variant-numeric:normal;font-feature-settings:normal;text-align:start;writing-mode:lr-tb;text-anchor:start;stroke:#ffffff;stroke-width:0;stroke-miterlimit:4;stroke-dasharray:none;stroke-opacity:1"
           id="path6816" />
        <path
           d="m -210.53845,45.67305 c -0.1905,0.116417 -0.94192,0.455084 -1.53458,0.455084 -0.48684,0 0.0741,-0.635 -0.61384,-0.635 -0.67733,0 -1.29116,0.963083 -1.34408,1.545166 -0.0318,0.381 0.23283,0.592667 0.58208,0.592667 0.51859,0 0.91017,-0.73025 1.04775,-1.17475 0.10584,0.04233 0.23284,0.0635 0.34925,0.0635 0.64559,0 1.40759,-0.4445 1.5875,-0.624417 0.0635,-0.0635 0.0106,-0.275166 -0.0741,-0.22225 z m -2.44475,0.994834 c -0.0847,0.179916 -0.24342,0.560916 -0.47625,0.560916 -0.34925,0 0.33867,-1.524 0.66675,-1.386416 0.17992,0.07408 -0.127,0.687916 -0.1905,0.8255 z"
           style="font-style:normal;font-variant:normal;font-weight:normal;font-stretch:normal;font-size:10.58333302px;font-family:Bahagia;-inkscape-font-specification:'Bahagia, Normal';font-variant-ligatures:normal;font-variant-caps:normal;font-variant-numeric:normal;font-feature-settings:normal;text-align:start;writing-mode:lr-tb;text-anchor:start;stroke:#ffffff;stroke-width:0;stroke-miterlimit:4;stroke-dasharray:none;stroke-opacity:1"
           id="path6818" />
        <path
           d="m -205.80356,46.106967 c -0.10584,-0.07408 -0.15875,0.02117 -0.29634,0.148167 -0.42333,0.338666 -0.93133,0.635 -1.49225,0.60325 -0.39158,-0.03175 -0.14816,-0.910167 -0.59266,-0.867834 -0.1905,0.02117 -0.33867,0.1905 -0.47625,0.338667 -0.17992,0.179917 -0.32809,0.391583 -0.52917,0.550333 -0.0212,-0.296333 0.23283,-1.195916 -0.22225,-1.217083 -0.35983,-0.01058 -0.8255,0.60325 -1.0795,0.85725 0.0318,-0.179917 0.14817,-0.508 0.0847,-0.709083 -0.0318,-0.15875 -0.21167,-0.179917 -0.3175,-0.105834 -0.11642,0.07408 -0.10584,0.328084 -0.13759,0.465667 -0.0423,0.22225 -0.127,0.560917 -0.15875,0.79375 -0.0212,0.15875 -0.0317,0.328083 0.13759,0.391583 0.13758,0.05292 0.26458,-0.04233 0.381,-0.127 0.3175,-0.232833 0.56091,-0.677333 0.85725,-0.941916 -0.0318,0.370416 -0.13759,1.153583 0.37041,1.153583 0.381,0 0.6985,-0.465667 0.9525,-0.73025 0.127,0.560917 0.67734,0.656167 1.10067,0.550333 0.48683,-0.127 1.03717,-0.402166 1.397,-0.783166 0.127,-0.137584 0.0952,-0.3175 0.0212,-0.370417 z"
           style="font-style:normal;font-variant:normal;font-weight:normal;font-stretch:normal;font-size:10.58333302px;font-family:Bahagia;-inkscape-font-specification:'Bahagia, Normal';font-variant-ligatures:normal;font-variant-caps:normal;font-variant-numeric:normal;font-feature-settings:normal;text-align:start;writing-mode:lr-tb;text-anchor:start;stroke:#ffffff;stroke-width:0;stroke-miterlimit:4;stroke-dasharray:none;stroke-opacity:1"
           id="path6820" />
        <path
           d="m -203.801,47.1653 c -0.508,-0.02117 -0.1905,-1.11125 -0.0953,-1.354666 -0.0635,-0.211667 -0.21167,-0.179917 -0.29633,-0.232834 -0.0212,-0.211666 -0.24342,-0.338666 -0.42334,-0.338666 -0.40216,0 -0.77258,0.306916 -1.03716,0.560916 -0.3175,0.306917 -0.74084,0.751417 -0.74084,1.2065 0,0.306917 0.24342,0.53975 0.55034,0.53975 0.48683,0 0.93133,-0.497416 1.23825,-0.836083 0.0106,0.338667 0.17991,0.846667 0.61383,0.846667 0.21167,0 0.23283,-0.232834 0.1905,-0.391584 z m -2.00025,0.04233 c -0.47625,0 0.29633,-1.217084 1.0795,-1.566334 0.14817,-0.0635 0.17992,0.02117 0.17992,0.137584 0,0.201083 -0.78317,1.42875 -1.25942,1.42875 z"
           style="font-style:normal;font-variant:normal;font-weight:normal;font-stretch:normal;font-size:10.58333302px;font-family:Bahagia;-inkscape-font-specification:'Bahagia, Normal';font-variant-ligatures:normal;font-variant-caps:normal;font-variant-numeric:normal;font-feature-settings:normal;text-align:start;writing-mode:lr-tb;text-anchor:start;stroke:#ffffff;stroke-width:0;stroke-miterlimit:4;stroke-dasharray:none;stroke-opacity:1"
           id="path6822" />
        <path
           d="m -197.44691,40.720051 c 0.0529,-0.148167 -0.16934,-0.232834 -0.30692,-0.232834 -0.26458,0 -0.30692,0.201084 -0.381,0.391584 l -0.79375,1.915583 c -0.55033,1.344083 -1.59808,3.534833 -2.77283,3.534833 -0.48684,0 -0.59267,-0.592667 -0.59267,-1.11125 0,-1.27 0.91017,-3.090333 1.22767,-3.344333 0.0847,-0.0635 -0.10584,-0.15875 -0.1905,-0.15875 -0.83609,0 -1.59809,2.529416 -1.59809,3.661833 0,0.814917 0.40217,1.449917 1.21709,1.449917 0.70908,0 1.30175,-0.592667 1.7145,-1.121834 -0.23284,0.910167 -0.73025,2.645834 -0.78317,3.71475 -0.0317,0.582084 0.58992,0.457315 0.59884,0.147595 -0.0871,-3.37969 1.19165,-5.884427 2.66083,-8.847094 z"
           style="font-style:normal;font-variant:normal;font-weight:normal;font-stretch:normal;font-size:10.58333302px;font-family:Bahagia;-inkscape-font-specification:'Bahagia, Normal';font-variant-ligatures:normal;font-variant-caps:normal;font-variant-numeric:normal;font-feature-settings:normal;text-align:start;writing-mode:lr-tb;text-anchor:start;stroke:#ffffff;stroke-width:0;stroke-miterlimit:4;stroke-dasharray:none;stroke-opacity:1"
           id="path6824" />
        <path
           d="m -195.3507,46.1493 c -0.1905,0.296334 -0.71967,0.846667 -1.21709,0.846667 -0.15875,0 -0.21166,-0.1905 -0.21166,-0.338667 0,-0.306916 0.0635,-0.53975 0.17991,-0.846666 -0.0635,-0.211667 -0.21166,-0.179917 -0.29633,-0.232834 -0.0212,-0.211666 -0.24342,-0.338666 -0.42333,-0.338666 -0.40217,0 -0.77259,0.306916 -1.03717,0.560916 -0.3175,0.306917 -0.74083,0.751417 -0.74083,1.2065 0,0.306917 0.24341,0.53975 0.55033,0.53975 0.48683,0 0.93133,-0.497416 1.23825,-0.836083 0.0106,0.338667 0.22225,0.677333 0.65617,0.677333 0.67733,0 1.31233,-0.5715 1.41816,-0.963083 0.0212,-0.09525 -0.0318,-0.275167 -0.11641,-0.275167 z m -3.15384,1.058334 c -0.47625,0 0.29634,-1.217084 1.0795,-1.566334 0.14817,-0.0635 0.17992,0.02117 0.17992,0.137584 0,0.201083 -0.78317,1.42875 -1.25942,1.42875 z"
           style="font-style:normal;font-variant:normal;font-weight:normal;font-stretch:normal;font-size:10.58333302px;font-family:Bahagia;-inkscape-font-specification:'Bahagia, Normal';font-variant-ligatures:normal;font-variant-caps:normal;font-variant-numeric:normal;font-feature-settings:normal;text-align:start;writing-mode:lr-tb;text-anchor:start;stroke:#ffffff;stroke-width:0;stroke-miterlimit:4;stroke-dasharray:none;stroke-opacity:1"
           id="path6826" />
        <path
           d="m -190.42466,46.106967 c -0.10583,-0.07408 -0.15875,0.02117 -0.29633,0.148167 -0.42334,0.338666 -0.93134,0.635 -1.49225,0.60325 -0.39159,-0.03175 -0.14817,-0.910167 -0.59267,-0.867834 -0.1905,0.02117 -0.33867,0.1905 -0.47625,0.338667 -0.17992,0.179917 -0.32808,0.391583 -0.52917,0.550333 -0.0212,-0.296333 0.23284,-1.195916 -0.22225,-1.217083 -0.35983,-0.01058 -0.8255,0.60325 -1.0795,0.85725 0.0317,-0.179917 0.14817,-0.508 0.0847,-0.709083 -0.0317,-0.15875 -0.21167,-0.179917 -0.3175,-0.105834 -0.11642,0.07408 -0.10583,0.328084 -0.13758,0.465667 -0.0423,0.22225 -0.127,0.560917 -0.15875,0.79375 -0.0212,0.15875 -0.0318,0.328083 0.13758,0.391583 0.13758,0.05292 0.26458,-0.04233 0.381,-0.127 0.3175,-0.232833 0.56092,-0.677333 0.85725,-0.941916 -0.0317,0.370416 -0.13758,1.153583 0.37042,1.153583 0.381,0 0.6985,-0.465667 0.9525,-0.73025 0.127,0.560917 0.67733,0.656167 1.10066,0.550333 0.48684,-0.127 1.03717,-0.402166 1.397,-0.783166 0.127,-0.137584 0.0952,-0.3175 0.0212,-0.370417 z"
           style="font-style:normal;font-variant:normal;font-weight:normal;font-stretch:normal;font-size:10.58333302px;font-family:Bahagia;-inkscape-font-specification:'Bahagia, Normal';font-variant-ligatures:normal;font-variant-caps:normal;font-variant-numeric:normal;font-feature-settings:normal;text-align:start;writing-mode:lr-tb;text-anchor:start;stroke:#ffffff;stroke-width:0;stroke-miterlimit:4;stroke-dasharray:none;stroke-opacity:1"
           id="path6828" />
        <path
           d="m -187.26851,46.1493 c -0.1905,0.296334 -0.71967,0.846667 -1.21708,0.846667 -0.15875,0 -0.21167,-0.1905 -0.21167,-0.338667 0,-0.306916 0.0635,-0.53975 0.17992,-0.846666 -0.0635,-0.211667 -0.21167,-0.179917 -0.29634,-0.232834 -0.0212,-0.211666 -0.24341,-0.338666 -0.42333,-0.338666 -0.40217,0 -0.77258,0.306916 -1.03717,0.560916 -0.3175,0.306917 -0.74083,0.751417 -0.74083,1.2065 0,0.306917 0.24342,0.53975 0.55033,0.53975 0.48684,0 0.93134,-0.497416 1.23825,-0.836083 0.0106,0.338667 0.22225,0.677333 0.65617,0.677333 0.67733,0 1.31233,-0.5715 1.41817,-0.963083 0.0212,-0.09525 -0.0318,-0.275167 -0.11642,-0.275167 z m -3.15383,1.058334 c -0.47625,0 0.29633,-1.217084 1.0795,-1.566334 0.14816,-0.0635 0.17991,0.02117 0.17991,0.137584 0,0.201083 -0.78316,1.42875 -1.25941,1.42875 z"
           style="font-style:normal;font-variant:normal;font-weight:normal;font-stretch:normal;font-size:10.58333302px;font-family:Bahagia;-inkscape-font-specification:'Bahagia, Normal';font-variant-ligatures:normal;font-variant-caps:normal;font-variant-numeric:normal;font-feature-settings:normal;text-align:start;writing-mode:lr-tb;text-anchor:start;stroke:#ffffff;stroke-width:0;stroke-miterlimit:4;stroke-dasharray:none;stroke-opacity:1"
           id="path6830" />
        <path
           d="m -182.34246,46.106967 c -0.10584,-0.07408 -0.15875,0.02117 -0.29634,0.148167 -0.42333,0.338666 -0.93133,0.635 -1.49225,0.60325 -0.39158,-0.03175 -0.14816,-0.910167 -0.59266,-0.867834 -0.1905,0.02117 -0.33867,0.1905 -0.47625,0.338667 -0.17992,0.179917 -0.32809,0.391583 -0.52917,0.550333 -0.0212,-0.296333 0.23283,-1.195916 -0.22225,-1.217083 -0.35983,-0.01058 -0.8255,0.60325 -1.0795,0.85725 0.0317,-0.179917 0.14817,-0.508 0.0847,-0.709083 -0.0317,-0.15875 -0.21167,-0.179917 -0.3175,-0.105834 -0.11642,0.07408 -0.10584,0.328084 -0.13759,0.465667 -0.0423,0.22225 -0.127,0.560917 -0.15875,0.79375 -0.0212,0.15875 -0.0318,0.328083 0.13759,0.391583 0.13758,0.05292 0.26458,-0.04233 0.381,-0.127 0.3175,-0.232833 0.56091,-0.677333 0.85725,-0.941916 -0.0317,0.370416 -0.13759,1.153583 0.37041,1.153583 0.381,0 0.6985,-0.465667 0.9525,-0.73025 0.127,0.560917 0.67734,0.656167 1.10067,0.550333 0.48683,-0.127 1.03717,-0.402166 1.397,-0.783166 0.127,-0.137584 0.0952,-0.3175 0.0212,-0.370417 z"
           style="font-style:normal;font-variant:normal;font-weight:normal;font-stretch:normal;font-size:10.58333302px;font-family:Bahagia;-inkscape-font-specification:'Bahagia, Normal';font-variant-ligatures:normal;font-variant-caps:normal;font-variant-numeric:normal;font-feature-settings:normal;text-align:start;writing-mode:lr-tb;text-anchor:start;stroke:#ffffff;stroke-width:0;stroke-miterlimit:4;stroke-dasharray:none;stroke-opacity:1"
           id="path6832" />
        <path
           d="m -179.40857,45.67305 c -0.1905,0.116417 -0.94191,0.455084 -1.53458,0.455084 -0.48683,0 0.0741,-0.635 -0.61383,-0.635 -0.67734,0 -1.29117,0.963083 -1.34409,1.545166 -0.0317,0.381 0.23284,0.592667 0.58209,0.592667 0.51858,0 0.91016,-0.73025 1.04775,-1.17475 0.10583,0.04233 0.23283,0.0635 0.34925,0.0635 0.64558,0 1.40758,-0.4445 1.5875,-0.624417 0.0635,-0.0635 0.0106,-0.275166 -0.0741,-0.22225 z m -2.44475,0.994834 c -0.0847,0.179916 -0.24341,0.560916 -0.47625,0.560916 -0.34925,0 0.33867,-1.524 0.66675,-1.386416 0.17992,0.07408 -0.127,0.687916 -0.1905,0.8255 z"
           style="font-style:normal;font-variant:normal;font-weight:normal;font-stretch:normal;font-size:10.58333302px;font-family:Bahagia;-inkscape-font-specification:'Bahagia, Normal';font-variant-ligatures:normal;font-variant-caps:normal;font-variant-numeric:normal;font-feature-settings:normal;text-align:start;writing-mode:lr-tb;text-anchor:start;stroke:#ffffff;stroke-width:0;stroke-miterlimit:4;stroke-dasharray:none;stroke-opacity:1"
           id="path6834" />
        <path
           d="m -176.74198,43.603631 c -0.24342,0 -1.09612,-0.03667 -1.65704,-0.04725 l 0.32809,-1.0795 c 0.0318,-0.105834 0.0318,-0.1905 -0.0741,-0.254 -0.26458,-0.148167 -0.35983,0.137583 -0.42333,0.3175 l -0.34925,1.016 c 0,0 -13.68443,-0.01018 -15.06023,-0.01018 -0.10583,0 -0.21167,0 -0.29632,0.0635 -0.0741,0.07408 -0.0741,0.1905 0,0.264584 0.0847,0.07408 0.19049,0.0635 0.29632,0.0635 0.44451,0 14.49931,0.02077 14.93323,0.02077 -0.28575,0.92075 -0.5715,1.852084 -0.84667,2.783417 l -0.41275,1.397 c -0.0635,0.211667 -0.127,0.423333 -0.17991,0.635 -0.0212,0.09525 -0.0529,0.201083 0.0212,0.28575 0.0635,0.07408 0.16934,0.09525 0.27517,0.08467 0.1905,-0.03175 0.29633,-0.15875 0.37042,-0.338667 0.0106,-0.03175 0.0106,-0.07408 -0.0106,-0.116417 -0.0423,-0.05292 -0.0741,-0.03175 -0.0423,-0.105833 l 0.49742,-1.778 c 0.26458,-0.931333 0.59266,-1.905 0.83608,-2.836333 0.43392,0.01058 2.65636,-0.01058 2.80453,-0.01058 0.39653,-0.09791 -0.62312,-0.341499 -1.00996,-0.354934 z"
           style="font-style:normal;font-variant:normal;font-weight:normal;font-stretch:normal;font-size:10.58333302px;font-family:Bahagia;-inkscape-font-specification:'Bahagia, Normal';font-variant-ligatures:normal;font-variant-caps:normal;font-variant-numeric:normal;font-feature-settings:normal;text-align:start;writing-mode:lr-tb;text-anchor:start;stroke:#ffffff;stroke-width:0;stroke-miterlimit:4;stroke-dasharray:none;stroke-opacity:1"
           id="path6836" />
        <path
           d="m -176.82971,46.128134 c -0.0847,0 -0.14816,-0.02117 -0.17991,-0.05292 -0.14817,-0.15875 0.127,-0.582083 -0.43392,-0.582083 -0.67733,0 -1.29116,0.963083 -1.34408,1.545166 -0.0317,0.381 0.23283,0.592667 0.58208,0.592667 0.51859,0 0.91017,-0.73025 1.04775,-1.17475 0.10583,0.04233 0.41275,0.05292 0.32808,-0.328083 z m -0.91016,0.53975 c -0.0847,0.179916 -0.24342,0.560916 -0.47625,0.560916 -0.34925,0 0.33867,-1.524 0.66675,-1.386416 0.17991,0.07408 -0.127,0.687916 -0.1905,0.8255 z"
           style="font-style:normal;font-variant:normal;font-weight:normal;font-stretch:normal;font-size:10.58333302px;font-family:Bahagia;-inkscape-font-specification:'Bahagia, Normal';font-variant-ligatures:normal;font-variant-caps:normal;font-variant-numeric:normal;font-feature-settings:normal;text-align:start;writing-mode:lr-tb;text-anchor:start;stroke:#ffffff;stroke-width:0;stroke-miterlimit:4;stroke-dasharray:none;stroke-opacity:1"
           id="path6838" />
      </g>
    </g>
  </g>
</svg>
